<?xml version="1.0" encoding="UTF-8"?>
<svg id="Livello_1" data-name="Livello 1" xmlns="http://www.w3.org/2000/svg" viewBox="0 0 89.04 89.04">
  <defs>
    <style>
      .cls-1 {
        stroke: #fff;
      }

      .cls-1, .cls-2, .cls-3, .cls-4 {
        stroke-miterlimit: 10;
        stroke-width: 4px;
      }

      .cls-1, .cls-4 {
        fill: #fff;
      }

      .cls-2 {
        fill: #e9cc70;
      }

      .cls-2, .cls-3, .cls-4 {
        stroke: #1d1d1b;
      }

      .cls-3 {
        fill: none;
      }
    </style>
  </defs>
  <circle class="cls-2" cx="44.52" cy="44.52" r="42.52"/>
  <line class="cls-1" x1="71.38" y1="74.57" x2="81.97" y2="60.59"/>
  <path class="cls-4" d="M57.84,84.71c-.93.09-2.31.18-3.98.14-14.99-.32-25.1-10.52-27.04-12.24-9.21-8.15-12.92-15.7-9.42-18.92,2.03-1.87,9.89-.57,14.11,1.37"/>
  <path class="cls-4" d="M41.47,40.11c-7.08-5.35-16.11-10.53-17.71-5.93-2.85,8.18,21.59,47.53,38.06,48.59"/>
  <path class="cls-4" d="M55.52,31.08c-8.46-10.96-17.85-20.34-20.77-17.49-2.9,2.83,3.03,18.57,12.65,44.82,2.99,8.15,10.67,18.7,17.56,22.91"/>
  <path class="cls-4" d="M85.51,55.87c-5.19-21.29-23.78-46.03-28.53-42.77-2.15,1.48-2.41,9.2-1.52,19.18,1.68,18.85,6.34,35.19,11.94,48.53"/>
  <path class="cls-3" d="M2,44.52C2,21.04,21.04,2,44.52,2s42.52,19.04,42.52,42.52-19.1,42.52-42.52,42.52S2,68,2,44.52Z"/>
</svg>